<?xml version="1.0" standalone="no"?>
<!DOCTYPE svg PUBLIC "-//W3C//DTD SVG 20010904//EN"
 "http://www.w3.org/TR/2001/REC-SVG-20010904/DTD/svg10.dtd">
<svg version="1.0" xmlns="http://www.w3.org/2000/svg"
 width="300.000000pt" height="300.000000pt" viewBox="0 0 300.000000 300.000000"
 preserveAspectRatio="xMidYMid meet">

<g transform="translate(0.000000,300.000000) scale(0.100000,-0.100000)"
fill="#000000" stroke="none">
<path d="M1440 2356 c-96 -71 -161 -160 -201 -276 -33 -96 -31 -239 3 -336 33
-94 87 -173 165 -242 108 -97 144 -169 144 -289 0 -52 -6 -86 -22 -124 l-22
-51 -62 6 c-95 10 -172 32 -265 78 -152 74 -293 237 -348 403 -64 192 -42 409
59 575 21 36 47 76 57 90 34 49 -87 -65 -143 -135 -207 -258 -247 -629 -100
-930 134 -274 403 -463 705 -493 377 -39 731 156 895 493 147 301 107 672
-100 930 -56 70 -177 184 -143 135 125 -178 172 -348 147 -526 -24 -173 -79
-284 -204 -409 -93 -94 -173 -144 -280 -178 -50 -16 -167 -38 -173 -32 -2 2
32 38 76 82 90 89 133 166 157 278 18 88 18 132 0 220 -25 117 -67 188 -172
294 -118 118 -145 167 -151 276 -4 75 2 104 33 178 11 25 -4 21 -55 -17z"/>
</g>
</svg>
